<mxfile host="65bd71144e">
    <diagram id="6hc5V4mraRsnnSKiqiFz" name="Page-1">
        <mxGraphModel dx="1147" dy="713" grid="1" gridSize="10" guides="1" tooltips="1" connect="1" arrows="1" fold="1" page="1" pageScale="1" pageWidth="1100" pageHeight="850" math="0" shadow="0">
            <root>
                <mxCell id="0"/>
                <mxCell id="1" parent="0"/>
                <mxCell id="28" value="" style="rounded=0;whiteSpace=wrap;html=1;strokeColor=#b46504;fillColor=#F5F0E9;" parent="1" vertex="1">
                    <mxGeometry width="1080" height="840" as="geometry"/>
                </mxCell>
                <mxCell id="2" value="" style="rounded=0;whiteSpace=wrap;html=1;fillColor=#F5F0E9;" parent="1" vertex="1">
                    <mxGeometry x="40" y="180" width="1000" height="620" as="geometry"/>
                </mxCell>
                <mxCell id="3" value="" style="rounded=0;whiteSpace=wrap;html=1;" parent="1" vertex="1">
                    <mxGeometry x="480" y="90" width="390" height="50" as="geometry"/>
                </mxCell>
                <mxCell id="4" value="" style="rounded=0;whiteSpace=wrap;html=1;fillColor=#FFC733;" parent="1" vertex="1">
                    <mxGeometry x="40" y="20" width="1000" height="140" as="geometry"/>
                </mxCell>
                <mxCell id="6" value="&amp;nbsp; &amp;nbsp;DEJA BREW" style="rounded=0;whiteSpace=wrap;html=1;fillColor=#D4A71B;fontColor=#0A0A0A;fontSize=30;align=left;" parent="1" vertex="1">
                    <mxGeometry x="180" y="40" width="390" height="90" as="geometry"/>
                </mxCell>
                <mxCell id="8" value="" style="rounded=0;whiteSpace=wrap;html=1;fillColor=#FFFFFF;" parent="1" vertex="1">
                    <mxGeometry x="50" y="270" width="500" height="500" as="geometry"/>
                </mxCell>
                <mxCell id="9" value="" style="rounded=0;whiteSpace=wrap;html=1;fillColor=#FFFFFF;" parent="1" vertex="1">
                    <mxGeometry x="570" y="270" width="460" height="500" as="geometry"/>
                </mxCell>
                <mxCell id="10" value="HEADER&amp;nbsp;" style="rounded=0;whiteSpace=wrap;html=1;fillColor=#DACDA9;fontColor=#0A0A0A;fontSize=21;" parent="1" vertex="1">
                    <mxGeometry x="60" y="280" width="480" height="90" as="geometry"/>
                </mxCell>
                <mxCell id="15" value="Breweries Near You" style="swimlane;childLayout=stackLayout;resizeParent=1;resizeParentMax=0;horizontal=1;startSize=20;horizontalStack=0;fillColor=#FFC733;fontColor=#0A0A0A;" parent="1" vertex="1">
                    <mxGeometry x="60" y="380" width="480" height="380" as="geometry"/>
                </mxCell>
                <mxCell id="16" value="Lane 1" style="swimlane;startSize=20;horizontal=0;fillColor=#D4A71B;fontColor=#0A0A0A;" parent="15" vertex="1">
                    <mxGeometry y="20" width="480" height="120" as="geometry"/>
                </mxCell>
                <mxCell id="17" value="Lane 2" style="swimlane;startSize=20;horizontal=0;fillColor=#D4A71B;fontColor=#0A0A0A;" parent="15" vertex="1">
                    <mxGeometry y="140" width="480" height="120" as="geometry"/>
                </mxCell>
                <mxCell id="18" value="Lane 3" style="swimlane;startSize=20;horizontal=0;fillColor=#D4A71B;fontColor=#0A0A0A;" parent="15" vertex="1">
                    <mxGeometry y="260" width="480" height="120" as="geometry"/>
                </mxCell>
                <mxCell id="24" value="PUSHPIN MAP" style="rounded=0;whiteSpace=wrap;html=1;fillColor=#DACDA9;" parent="1" vertex="1">
                    <mxGeometry x="580" y="390" width="440" height="340" as="geometry"/>
                </mxCell>
                <mxCell id="25" value="HEADER&amp;nbsp;" style="rounded=0;whiteSpace=wrap;html=1;fillColor=#DACDA9;fontColor=#0A0A0A;fontSize=21;" parent="1" vertex="1">
                    <mxGeometry x="580" y="280" width="440" height="90" as="geometry"/>
                </mxCell>
                <mxCell id="5" value="" style="rounded=0;whiteSpace=wrap;html=1;fillColor=#ECE6D3;" parent="1" vertex="1">
                    <mxGeometry x="55" y="190" width="970" height="60" as="geometry"/>
                </mxCell>
                <mxCell id="7" value="" style="rounded=0;whiteSpace=wrap;html=1;fillColor=#D4A71B;" parent="1" vertex="1">
                    <mxGeometry x="70" y="195" width="420" height="50" as="geometry"/>
                </mxCell>
                <mxCell id="20" value="&amp;lt;ZIP, CITY HERE, BEER NAME&amp;gt;" style="rounded=0;whiteSpace=wrap;html=1;" parent="1" vertex="1">
                    <mxGeometry x="80" y="205" width="270" height="30" as="geometry"/>
                </mxCell>
                <mxCell id="19" value="SEARCH" style="shape=ext;double=1;rounded=0;whiteSpace=wrap;html=1;fillColor=#FFC733;" parent="1" vertex="1">
                    <mxGeometry x="370" y="205" width="100" height="30" as="geometry"/>
                </mxCell>
                <mxCell id="26" value="IMG&lt;br&gt;(Link to top of page)" style="shape=ext;double=1;rounded=0;whiteSpace=wrap;html=1;fillColor=#D4A71B;" parent="1" vertex="1">
                    <mxGeometry x="60" y="40" width="110" height="95" as="geometry"/>
                </mxCell>
                <mxCell id="29" value="NAVBAR?" style="shape=ext;double=1;rounded=0;whiteSpace=wrap;html=1;fillColor=#D4A71B;" parent="1" vertex="1">
                    <mxGeometry x="910" y="60" width="110" height="50" as="geometry"/>
                </mxCell>
                <mxCell id="30" value="" style="rounded=0;whiteSpace=wrap;html=1;fillColor=#d80073;strokeColor=#A50040;fontColor=#ffffff;" vertex="1" parent="1">
                    <mxGeometry x="330" y="550" width="120" height="60" as="geometry"/>
                </mxCell>
            </root>
        </mxGraphModel>
    </diagram>
</mxfile>